<svg xmlns="http://www.w3.org/2000/svg" viewBox="0 0 150 150"><path d="M99.872 223.076c-18.575-1.05-35.722-8.71-48.828-21.81-12.019-12.014-19.555-27.658-21.42-44.464-.339-3.057-.433-4.861-.433-8.291 0-4.552.322-8.837.682-9.094 1.168-.833 8.915-5.683 9.703-6.074.576-.286 1.057-.511 1.069-.5.012.01-.13.697-.314 1.528-1.05 4.724-1.5 8.972-1.5 14.14 0 4.144.251 7.277.877 10.941 2.69 15.761 11.03 29.863 23.613 39.927a64.73 64.73 0 0 0 33.254 13.755c5.035.554 10.784.5 15.71-.146a65.862 65.862 0 0 0 11.863-2.7c1.734-.569 5.373-1.954 6.078-2.314 2.825-2.622 4.938-7.86 5.806-11.05.507-1.887 1.148-3.782 1.775-5.253 4.298-10.074 12.672-17.125 25.629-21.58 6.761-2.518 12.82-3.774 20.267-2.98 3.971.5 7.265 1.648 9.885 3.443 2.024 1.387 3.743 3.716 4.65 6.302.55 1.569.721 2.633.725 4.528.005 2.31-.251 3.56-1.312 6.391-3.193 8.524-9.39 15.768-18.86 22.044-7.068 4.686-13.341 6.941-20.422 7.343-3.17.18-5.784-.067-9.382-.886-3.117-.5-5.803-1.06-8.83-1.058-.86.003-1.412.066-3.445.396-.406.066-.996.302-1.89.756-.716.363-2.196 1.016-3.29 1.451-7.118 2.832-14.116 4.473-21.818 5.115-2.175.182-7.711.26-9.842.14zm60.412-10.623c4.808-.511 8.902-2.134 14.158-5.613 2.437-1.612 4.269-3.08 6.47-5.182 1.029-.982 1.038-.995.886-1.227-.085-.13-.194-.235-.242-.235-.147 0-6.448 2.617-10.799 4.484-4.813 2.067-7.237 3.018-9.94 3.9-3.969 1.297-7.378 2.282-10.868 2.535-1.072.139-1.795-.011-2.45.621.087.082 2.855.494 4.591.683 2.654.289 5.678.301 8.194.034zm6.196-46.561c.215-.717.875-3.546 1.115-4.775.86-4.41 1.193-7.933 1.193-12.606 0-4.674-.334-8.197-1.193-12.607-3.306-16.951-13.431-32.032-27.965-41.65-12.932-8.558-28.325-12.16-43.88-10.271-3.748.455-7.964 1.377-11.545 2.524-.93.298-2.059.646-2.509.773-3.555 1.542-5.155 7.391-5.852 9.4-.703 2.057-1 3.546-1.282 6.4-.27 2.743-.768 4.303-1.921 6.012-.56.83-1.92 2.14-2.88 2.774-.67.442-26.901 17.302-36.845 23.681-2.96 1.899-3.347 2.1-4.036 2.102-1.275.002-1.804-.54-1.804-1.853 0-.694.213-1.054 1.132-1.907.328-.305 4.63-3.656 9.56-7.447 4.93-3.792 11.707-9.006 15.06-11.588 3.352-2.583 6.314-4.85 6.58-5.038.806-.57.856-1.295.503-2.072-.337-.741-.837-1.026-1.846-1.027-.48 0-.562.045-2.424 1.324-1.06.728-3.345 2.33-5.078 3.56a3097.057 3097.057 0 0 1-17.455 12.31 1472.074 1472.074 0 0 0-7.63 5.366c-.542.393-1.117.74-1.276.772-.637.128-1.848-.549-2.2-1.228-.197-.382-.18-1.05.038-1.406.288-.473 6.469-5.648 10.486-8.78 2.85-2.222 6.705-5.128 14.255-10.745 3.866-2.877 7.173-5.363 7.348-5.524l.318-.294c.724-1.299-.228-3.061-1.718-2.817-.375-.006-1.37.637-4.917 3.18-2.421 1.738-26.79 18.956-27.698 19.572-1.69 1.146-2.658 1.112-3.475-.12-.488-.738-.52-1.297-.105-1.826.241-.306 9.779-7.852 19.192-15.185 3.855-3.002 6.319-4.857 11.055-8.32l2.375-1.737c.658-1.496-.1-2.962-1.77-2.94-.279 0-2.15 1.23-6.569 4.317a4915.501 4915.501 0 0 1-11.879 8.242l-11.54 7.987c-3.327 2.305-3.794 2.574-4.455 2.564-1.578-.284-2.188-1.005-1.787-2.418.364-.766 3.273-3.34 11.818-10.458 11.06-9.211 18.747-15.551 24-19.794 2.724-2.2 5.235-3.253 7.758-3.256 1.149 0 1.828.132 3.54.694 5.72 1.876 10.799 1.875 15.66-.004 1.152-.445 1.853-.675 3.249-1.067.533-.15 1.668-.518 2.521-.82a80.05 80.05 0 0 1 3.685-1.158c15.64-4.487 32.812-3.634 47.87 2.378 2.24.894 3.721 1.568 6.191 2.815a74.57 74.57 0 0 1 26.025 21.81c7.404 9.87 12.111 20.966 14.068 33.163.625 3.894.867 7.142.867 11.637 0 5.356-.349 9.121-1.31 14.133l-.303 1.576c-3.554-.237-6.782.715-10.238 1.795-.084.03-.11-.01-.077-.123zm-97.105-67.04c-2.516-5.48-6.662-10.545-9.108-12.993-1.488 2.728.088 6.647 1.25 8.3 1.164 1.652 4.618 3.964 6.597 4.547.907.267 1.26.308 1.26.147z" style="fill:#000;stroke-width:.0969704"/></svg>
<svg xmlns="http://www.w3.org/2000/svg" viewBox="0 0 210 297"><path d="M99.872 223.076c-18.575-1.05-35.722-8.71-48.828-21.81-12.019-12.014-19.555-27.658-21.42-44.464-.339-3.057-.433-4.861-.433-8.291 0-4.552.322-8.837.682-9.094 1.168-.833 8.915-5.683 9.703-6.074.576-.286 1.057-.511 1.069-.5.012.01-.13.697-.314 1.528-1.05 4.724-1.5 8.972-1.5 14.14 0 4.144.251 7.277.877 10.941 2.69 15.761 11.03 29.863 23.613 39.927a64.73 64.73 0 0 0 33.254 13.755c5.035.554 10.784.5 15.71-.146a65.862 65.862 0 0 0 11.863-2.7c1.734-.569 5.373-1.954 6.078-2.314 2.825-2.622 4.938-7.86 5.806-11.05.507-1.887 1.148-3.782 1.775-5.253 4.298-10.074 12.672-17.125 25.629-21.58 6.761-2.518 12.82-3.774 20.267-2.98 3.971.5 7.265 1.648 9.885 3.443 2.024 1.387 3.743 3.716 4.65 6.302.55 1.569.721 2.633.725 4.528.005 2.31-.251 3.56-1.312 6.391-3.193 8.524-9.39 15.768-18.86 22.044-7.068 4.686-13.341 6.941-20.422 7.343-3.17.18-5.784-.067-9.382-.886-3.117-.5-5.803-1.06-8.83-1.058-.86.003-1.412.066-3.445.396-.406.066-.996.302-1.89.756-.716.363-2.196 1.016-3.29 1.451-7.118 2.832-14.116 4.473-21.818 5.115-2.175.182-7.711.26-9.842.14zm60.412-10.623c4.808-.511 8.902-2.134 14.158-5.613 2.437-1.612 4.269-3.08 6.47-5.182 1.029-.982 1.038-.995.886-1.227-.085-.13-.194-.235-.242-.235-.147 0-6.448 2.617-10.799 4.484-4.813 2.067-7.237 3.018-9.94 3.9-3.969 1.297-7.378 2.282-10.868 2.535-1.072.139-1.795-.011-2.45.621.087.082 2.855.494 4.591.683 2.654.289 5.678.301 8.194.034zm6.196-46.561c.215-.717.875-3.546 1.115-4.775.86-4.41 1.193-7.933 1.193-12.606 0-4.674-.334-8.197-1.193-12.607-3.306-16.951-13.431-32.032-27.965-41.65-12.932-8.558-28.325-12.16-43.88-10.271-3.748.455-7.964 1.377-11.545 2.524-.93.298-2.059.646-2.509.773-3.555 1.542-5.155 7.391-5.852 9.4-.703 2.057-1 3.546-1.282 6.4-.27 2.743-.768 4.303-1.921 6.012-.56.83-1.92 2.14-2.88 2.774-.67.442-26.901 17.302-36.845 23.681-2.96 1.899-3.347 2.1-4.036 2.102-1.275.002-1.804-.54-1.804-1.853 0-.694.213-1.054 1.132-1.907.328-.305 4.63-3.656 9.56-7.447 4.93-3.792 11.707-9.006 15.06-11.588 3.352-2.583 6.314-4.85 6.58-5.038.806-.57.856-1.295.503-2.072-.337-.741-.837-1.026-1.846-1.027-.48 0-.562.045-2.424 1.324-1.06.728-3.345 2.33-5.078 3.56a3097.057 3097.057 0 0 1-17.455 12.31 1472.074 1472.074 0 0 0-7.63 5.366c-.542.393-1.117.74-1.276.772-.637.128-1.848-.549-2.2-1.228-.197-.382-.18-1.05.038-1.406.288-.473 6.469-5.648 10.486-8.78 2.85-2.222 6.705-5.128 14.255-10.745 3.866-2.877 7.173-5.363 7.348-5.524l.318-.294c.724-1.299-.228-3.061-1.718-2.817-.375-.006-1.37.637-4.917 3.18-2.421 1.738-26.79 18.956-27.698 19.572-1.69 1.146-2.658 1.112-3.475-.12-.488-.738-.52-1.297-.105-1.826.241-.306 9.779-7.852 19.192-15.185 3.855-3.002 6.319-4.857 11.055-8.32l2.375-1.737c.658-1.496-.1-2.962-1.77-2.94-.279 0-2.15 1.23-6.569 4.317a4915.501 4915.501 0 0 1-11.879 8.242l-11.54 7.987c-3.327 2.305-3.794 2.574-4.455 2.564-1.578-.284-2.188-1.005-1.787-2.418.364-.766 3.273-3.34 11.818-10.458 11.06-9.211 18.747-15.551 24-19.794 2.724-2.2 5.235-3.253 7.758-3.256 1.149 0 1.828.132 3.54.694 5.72 1.876 10.799 1.875 15.66-.004 1.152-.445 1.853-.675 3.249-1.067.533-.15 1.668-.518 2.521-.82a80.05 80.05 0 0 1 3.685-1.158c15.64-4.487 32.812-3.634 47.87 2.378 2.24.894 3.721 1.568 6.191 2.815a74.57 74.57 0 0 1 26.025 21.81c7.404 9.87 12.111 20.966 14.068 33.163.625 3.894.867 7.142.867 11.637 0 5.356-.349 9.121-1.31 14.133l-.303 1.576c-3.554-.237-6.782.715-10.238 1.795-.084.03-.11-.01-.077-.123zm-97.105-67.04c-2.516-5.48-6.662-10.545-9.108-12.993-1.488 2.728.088 6.647 1.25 8.3 1.164 1.652 4.618 3.964 6.597 4.547.907.267 1.26.308 1.26.147z" style="fill:#000;stroke-width:.0969704"/></svg>